# xmcd CD database file
#
# Track frame offsets:
#	150
#	39083
#	65349
#	99297
#	116138
#	139419
#	162822
#	183569
#	208609
#	239806
#
# Disc length: 3467 seconds
#
# Revision: 1
# Processed by: cddbd v1.5.2PL0 Copyright (c) Steve Scherf et al.
# Submitted via: CDex 1.70beta2
#
DISCID=8c0d890a
DTITLE=Simona Premazzi - Looking For An Exit
DYEAR=2006
DGENRE=Jazz
TTITLE0=Smokersion
TTITLE1=Autumn Leaves
TTITLE2=Four O'clock
TTITLE3=Just One Of Those Things
TTITLE4=Ale's Dog
TTITLE5=Prayer For Robert
TTITLE6=Junkie Paper Dragon
TTITLE7=B. R. A. D.
TTITLE8=But Not For Me
TTITLE9=Looking For An Exit
EXTD=YEAR: 2006
EXTT0=
EXTT1=
EXTT2=
EXTT3=
EXTT4=
EXTT5=
EXTT6=
EXTT7=
EXTT8=
EXTT9=
PLAYORDER=
